<?xml version="1.0" encoding="utf-8"?>
<!-- Generator: Adobe Illustrator 25.2.1, SVG Export Plug-In . SVG Version: 6.00 Build 0)  -->
<svg version="1.1" id="Layer_1" xmlns="http://www.w3.org/2000/svg" xmlns:xlink="http://www.w3.org/1999/xlink" x="0px" y="0px"
	 viewBox="0 0 50 50" style="enable-background:new 0 0 50 50;" xml:space="preserve">
<style type="text/css">
	.st0{fill:#FFBB6C;}
</style>
<g>
	<path class="st0" d="M21.01,21.5v5.57h-4.86c-0.66,0-1.13,0.1-1.4,0.29c-0.27,0.2-0.41,0.53-0.41,0.99c0,0.53,0.14,0.87,0.42,1.04
		c0.28,0.17,0.85,0.25,1.72,0.25h5v7.15h-5.85c-2.75,0-4.85-0.66-6.31-1.97c-1.45-1.31-2.18-3.21-2.18-5.69v-9.81
		c0-2.39,0.69-4.25,2.06-5.57c1.37-1.32,3.31-1.98,5.8-1.98h6.47v7.19h-4.75c-1.28,0-1.92,0.42-1.92,1.25
		c0,0.49,0.15,0.83,0.46,1.02c0.31,0.19,0.85,0.28,1.63,0.28H21.01z"/>
	<path class="st0" d="M25.25,36.79V20.54c0-2.85,0.85-5.13,2.56-6.84c1.71-1.71,3.97-2.57,6.81-2.57c2.82,0,4.98,0.83,6.48,2.49
		c1.5,1.66,2.25,4.05,2.25,7.17v15.98h-7.44V20.8c0-1.53-0.54-2.29-1.63-2.29c-1.05,0-1.58,0.76-1.58,2.29v15.98H25.25z"/>
</g>
<g>
</g>
<g>
</g>
<g>
</g>
<g>
</g>
<g>
</g>
<g>
</g>
<g>
</g>
<g>
</g>
<g>
</g>
<g>
</g>
<g>
</g>
<g>
</g>
<g>
</g>
<g>
</g>
<g>
</g>
</svg>
