<?xml version="1.0" encoding="utf-8"?>
<!-- Generator: Adobe Illustrator 25.2.1, SVG Export Plug-In . SVG Version: 6.00 Build 0)  -->
<svg version="1.1" id="Layer_1" xmlns="http://www.w3.org/2000/svg" xmlns:xlink="http://www.w3.org/1999/xlink" x="0px" y="0px"
	 viewBox="0 0 50 50" style="enable-background:new 0 0 50 50;" xml:space="preserve">
<style type="text/css">
	.st0{fill:#FFBB6C;}
</style>
<g>
	<path class="st0" d="M12.31,19.54v18.29H4.87V12.81h9.55c2.91,0,5.16,0.72,6.76,2.16c1.78,1.61,2.68,3.66,2.68,6.14
		c0,2.53-1.11,4.66-3.32,6.4l4.29,10.32h-7.81l-3.61-8.06v-6.43H14c1.56,0,2.35-0.67,2.35-2.02c0-1.19-0.9-1.78-2.71-1.78H12.31z"/>
	<path class="st0" d="M44.9,12.81v16.22c0,2.86-0.85,5.14-2.56,6.85c-1.71,1.71-3.97,2.57-6.81,2.57c-2.82,0-4.98-0.83-6.48-2.49
		c-1.5-1.66-2.25-4.05-2.25-7.17V12.81h7.44v15.96c0,1.53,0.54,2.29,1.63,2.29c1.05,0,1.58-0.76,1.58-2.29V12.81H44.9z"/>
</g>
<g>
</g>
<g>
</g>
<g>
</g>
<g>
</g>
<g>
</g>
<g>
</g>
<g>
</g>
<g>
</g>
<g>
</g>
<g>
</g>
<g>
</g>
<g>
</g>
<g>
</g>
<g>
</g>
<g>
</g>
</svg>
